# xmcd
#
# Track frame offsets:
#	150
#	13995
#	29450
#	46620
#	59805
#	72047
#	84310
#	100980
#	120170
#	139090
#	154565
#	170507
#	185360
#	203270
#	220637
#
# Disc length: 3199 seconds
# Revision: 3
# Processed by: cddbd v1.5.2PL0 Copyright (c) Steve Scherf et al.
# Submitted via: dBpowerAMP V12.0
#
DISCID=bd0c7d0f
DTITLE=Johnny Cash featuring June Carter and The Carter Family with Jack Hale, Jr. and His Nashville All-Star Band and Singers - Johnny Cash Country Christmas
DYEAR=1991
DGENRE=Christmas
TTITLE0=Blue Christmas
TTITLE1=Silent Night
TTITLE2=White Christmas
TTITLE3=Figgy Puddin
TTITLE4=Here Was a Man
TTITLE5=Joy to the World
TTITLE6=O Little Town of Bethlehem
TTITLE7=What Child Is This
TTITLE8=The First Noel
TTITLE9=Away in a Manger
TTITLE10=O Christmas Tree
TTITLE11=O Come All Ye Faithful
TTITLE12=It Came Upon a Midnight Clear
TTITLE13=Hark! The Herald Angels Sing
TTITLE14=I'll Be Home for Christmas
EXTD=
EXTT0=
EXTT1=
EXTT2=
EXTT3=
EXTT4=
EXTT5=
EXTT6=
EXTT7=
EXTT8=
EXTT9=
EXTT10=
EXTT11=
EXTT12=
EXTT13=
EXTT14=
PLAYORDER=
